<svg version="1.1" preserveAspectRatio="none" xmlns="http://www.w3.org/2000/svg" width="500" height="500" viewBox="0 0 500 500"><rect width="100%" height="100%" fill="#1C1C1C" fill-opacity="1"/><svg viewBox="82.1934 34.8 330.5624 266" width="333" height="267.96151044401904" x="83.5px" y="116.0192px" xmlns="http://www.w3.org/2000/svg" xmlns:xlink="http://www.w3.org/1999/xlink" preserveAspectRatio="none"><defs></defs><style>.companyName {fill:#EDEDED;fill-opacity:1;}.icon1 {fill:#EDEDED;fill-opacity:1;}.icon2 {fill:#F35F40;fill-opacity:1;}.icon3 {fill:#B2B2B1;fill-opacity:1;}.icon3-str {stroke:#B2B2B1;stroke-opacity:1;}</style><g opacity="1" transform="rotate(0 175.02 34.8)">
<svg width="144.9093" height="200" x="175.02" y="34.8" version="1.1" preserveAspectRatio="none" viewBox="42 20 116 160.10000610351562">
  <g transform="matrix(1 0 0 1 0 0)" ><g><path d="M131 120.9c3 .3 6 1.2 8.8 2.5l-35.2 12.8c4.4-10.1 14.9-16.5 26.4-15.3zm-30.9-73.2l-.2 18.9c-1.6-5.4-6.4-9.5-12.3-9.9-1.6-.1-3.2.1-4.8.5L99.9 67l-.1 9c-2.3-5.4-7.7-9.1-13.9-9.1-1.8 0-3.5.3-5.1.9l19 9.1-.1 9.7c-3-6.2-9.4-10.3-16.6-9.9-2 .1-4 .6-5.9 1.4l22.5 9.4-.1 10.2c-3.2-7-10.3-11.7-18.4-11.2-2.2.1-4.4.6-6.5 1.5l24.8 10.4-.1 10.4c-3.9-7.6-12.1-12.3-21.1-11.4-2.6.3-5 1-7.1 2l28.2 10.2-.1 12.2c-4.3-8.6-13.5-14.1-23.6-13.1-2.8.3-5.4 1-7.9 2.3l31.5 11.4-.1 13.3c-4.6-9.7-14.9-16-26.2-14.8-3 .3-6 1.2-8.8 2.5l35 12.7-.2 23.5h3.9l-1.7-111.9h-1.1zm4.1 74.8l31.9-11.6c-2.5-1.2-5.2-2-7.9-2.3-10.4-1-19.9 4.8-24 13.9zm21.3-25.2c-9.3-1-17.9 4.3-21.6 12.5l28.7-10.4c-2.2-1.2-4.6-1.8-7.1-2.1zM104 98.6l25.2-10.7c-2.1-.9-4.2-1.4-6.5-1.5-8.4-.4-15.8 4.7-18.7 12.2zm16.8-22c-7.7-.4-14.4 4.3-17 11.1l22.9-9.7c-1.9-.8-3.9-1.3-5.9-1.4zm-2.9-9.8c-6.6.1-12.2 4.4-14.2 10.4l19.3-9.5c-1.6-.6-3.3-.9-5.1-.9zm-1.6-10.2c-6.1.5-10.9 4.9-12.3 10.6L121.1 57c-1.6-.4-3.2-.6-4.8-.4zm1.7-9.1c-1.4-.2-2.8-.2-4.2 0-5.2.9-9 5.1-9.8 10.1l14-10.1zm-28.1.1c-1.4-.2-2.8-.2-4.2.1l14.3 9.6c-.9-4.9-4.8-8.9-10.1-9.7zM158 78.3v43.5c0 32.1-26 58.3-58 58.3S42 154 42 121.8V78.3C42 46.1 68 20 100 20s58 26.1 58 58.3zm-3.4 0c0-30.3-24.5-54.9-54.6-54.9S45.4 48 45.4 78.3v43.5c0 30.3 24.5 54.9 54.6 54.9s54.6-24.6 54.6-54.9V78.3zm-3.4.2v43c0 28.4-23 51.4-51.2 51.4-28.2 0-51.2-23.1-51.2-51.4v-43c0-28.4 23-51.4 51.2-51.4s51.2 23 51.2 51.4zm-3.4 0c0-26.5-21.5-48.1-47.8-48.1-26.4 0-47.8 21.6-47.8 48.1v43c0 17 8.9 32 22.2 40.6.2-.1.3-.1.5-.1.7 0 1.1.6 1.1 1.1 7.3 4.3 15.6 6.5 24 6.5 26.4 0 47.8-21.6 47.8-48.1v-43zM69 93.6c1.4 0 1.5-2.3 0-2.3s-1.5 2.3 0 2.3zm2.3-15.8c1.4 0 1.5-2.3 0-2.3-1.4 0-1.4 2.3 0 2.3zm7.5-29.7c1.4 0 1.5-2.3 0-2.3-1.4 0-1.4 2.3 0 2.3zm-7.5 13.6c1.4 0 1.5-2.3 0-2.3-1.4.1-1.4 2.3 0 2.3zM58.6 87.1c-1.4 0-1.5 2.3 0 2.3 1.4 0 1.4-2.3 0-2.3zm74 6.5c1.4 0 1.5-2.3 0-2.3s-1.5 2.3 0 2.3zm-2.3-15.8c1.4 0 1.5-2.3 0-2.3s-1.5 2.3 0 2.3zm-7.6-29.7c1.4 0 1.5-2.3 0-2.3-1.4 0-1.4 2.3 0 2.3zm17.5 18.1c1.4 0 1.5-2.3 0-2.3s-1.5 2.3 0 2.3zm-9.9-4.5c1.4 0 1.5-2.3 0-2.3-1.5.1-1.5 2.3 0 2.3zM143 89.4c1.4 0 1.5-2.3 0-2.3s-1.5 2.3 0 2.3zM68.7 51.5c1.4 0 1.5-2.3 0-2.3-1.4 0-1.4 2.3 0 2.3zm-2.8 7.3c1.4 0 1.5-2.3 0-2.3-1.4.1-1.5 2.3 0 2.3zm0 10.2c1.4 0 1.5-2.3 0-2.3-1.4 0-1.5 2.3 0 2.3zm-6.2 1.1c-1.4 0-1.5 2.3 0 2.3s1.5-2.3 0-2.3zm50.7-29.4c.7 0 .7-1.1 0-1.1-.8 0-.8 1.1 0 1.1zm-14.1 0c.7 0 .7-1.1 0-1.1s-.7 1.1 0 1.1zm8.4-5.6c.7 0 .7-1.1 0-1.1-.7-.1-.7 1.1 0 1.1zm-1.1 2.8c-.7 0-.7 1.1 0 1.1s.7-1.1 0-1.1zm14.6 3.4c.7 0 .7-1.1 0-1.1s-.7 1.1 0 1.1zm11.9 6.2c.7 0 .7-1.1 0-1.1-.8 0-.8 1.1 0 1.1zm-2.3 7.4c.7 0 .7-1.1 0-1.1-.7-.1-.7 1.1 0 1.1zm9 .5c.7 0 .7-1.1 0-1.1s-.7 1.1 0 1.1zm0 16.4c.7 0 .7-1.1 0-1.1s-.7 1.1 0 1.1zm2.8 13.6c.7 0 .7-1.1 0-1.1s-.7 1.1 0 1.1zm-1.1-1.1c.7 0 .7-1.1 0-1.1-.7-.1-.7 1.1 0 1.1zm2.8-12.5c.7 0 .7-1.1 0-1.1s-.7 1.1 0 1.1zm.6 9.1c.7 0 .7-1.1 0-1.1-.8-.1-.8 1.1 0 1.1zm-13-11.9c.7 0 .7-1.1 0-1.1s-.7 1.1 0 1.1zM58 64.2c.7 0 .7-1.1 0-1.1s-.7 1.1 0 1.1zm.3 15.5c-.7 0-.7 1.1 0 1.1.7.1.7-1.1 0-1.1zm5.6 2c-.7 0-.7 1.1 0 1.1.8.1.8-1.1 0-1.1zm-4.8 15.6c.7 0 .7-1.1 0-1.1-.7-.1-.7 1.1 0 1.1zm21.7-58.5c.7 0 .7-1.1 0-1.1-.7-.1-.7 1.1 0 1.1zm7-2c.7 0 .7-1.1 0-1.1-.7-.1-.7 1.1 0 1.1zm0 7c.7 0 .7-1.1 0-1.1s-.7 1.1 0 1.1zm9.6-9.3c.7 0 .7-1.1 0-1.1s-.7 1.1 0 1.1zM73.8 68.2c.7 0 .7-1.1 0-1.1-.7-.1-.7 1.1 0 1.1zm3.6-10.5c.7 0 .7-1.1 0-1.1s-.7 1.1 0 1.1zm-5.3-6.2c.7 0 .7-1.1 0-1.1-.7-.1-.7 1.1 0 1.1zm1.1-7.9c.7 0 .7-1.1 0-1.1-.7-.1-.7 1.1 0 1.1zm59.7 37.8c.7 0 .7-1.1 0-1.1-.8 0-.8 1.1 0 1.1zm7.3 15.6c-.7 0-.7 1.1 0 1.1s.7-1.1 0-1.1zm5.6 1.1c.7 0 .7-1.1 0-1.1s-.7 1.1 0 1.1zm-80.6 41c-.7 0-.7 1.1 0 1.1s.7-1.1 0-1.1zm3.7 7.5c-.7 0-.7 1.1 0 1.1.7.1.7-1.1 0-1.1zm4.5-1.5c-.7 0-.7 1.1 0 1.1.7.1.7-1.1 0-1.1zm-1.5-6c-.7 0-.7 1.1 0 1.1s.7-1.1 0-1.1zm15 1.5c-.7 0-.7 1.1 0 1.1s.7-1.1 0-1.1zm-1.5 10c-1.4 0-1.5 2.3 0 2.3s1.5-2.3 0-2.3zm-.7 6.8c-1.4 0-1.5 2.3 0 2.3 1.4-.1 1.4-2.3 0-2.3zm35.2 0c-1.4 0-1.5 2.3 0 2.3 1.5-.1 1.5-2.3 0-2.3zm-3.7-18.1c-1.4 0-1.5 2.3 0 2.3 1.4 0 1.4-2.3 0-2.3zm18 0c-1.4 0-1.5 2.3 0 2.3 1.4 0 1.4-2.3 0-2.3zm-9.8 7.5c-1.4 0-1.5 2.3 0 2.3s1.5-2.3 0-2.3zm17.3-18.1c-1.4 0-1.5 2.3 0 2.3 1.4 0 1.4-2.3 0-2.3zm-2.3-19.6c-1.4 0-1.5 2.3 0 2.3s1.5-2.3 0-2.3zm-81.8 3.1c-1.4 0-1.5 2.3 0 2.3 1.5-.1 1.5-2.3 0-2.3zm1.5 13.5c-1.4 0-1.5 2.3 0 2.3s1.5-2.3 0-2.3zm18.8 20.4c-1.4 0-1.5 2.3 0 2.3 1.5-.1 1.5-2.3 0-2.3zm-3.7-10.8c-.7 0-.7 1.1 0 1.1.7.1.7-1.1 0-1.1zm-9.8-33.9c-.7 0-.7 1.1 0 1.1s.7-1.1 0-1.1zm76.5 19.6c-.7 0-.7 1.1 0 1.1.8 0 .8-1.1 0-1.1zm-32.2 32.4c-.7 0-.7 1.1 0 1.1.7.1.7-1.1 0-1.1zm18-19.6c-.7 0-.7 1.1 0 1.1.7.1.7-1.1 0-1.1zm-33.8 9.8c-.7 0-.7 1.1 0 1.1.7.1.7-1.1 0-1.1zm0 15.1c-.7 0-.7 1.1 0 1.1s.7-1.1 0-1.1z" data-color="1" class="icon1"></path></g></g>
</svg>
</g><g opacity="1" transform="rotate(0 82.1934 260.8)">
<svg width="330.5624" height="40" x="82.1934" y="260.8" version="1.1" preserveAspectRatio="none" viewBox="0.84 -34.68 289.24000000000007 35">
  <g transform="matrix(1 0 0 1 0 0)" class="companyName"><path id="id-D6z1nYkh14" d="M9.68 0.32Q5 0.32 2.92-2Q0.84-4.32 0.84-9.48L0.84-9.48L0.84-12.84L7.60-12.84L7.60-8.56Q7.60-6 9.24-6L9.24-6Q10.16-6 10.52-6.54Q10.88-7.08 10.88-8.36L10.88-8.36Q10.88-10.04 10.48-11.14Q10.08-12.24 9.46-12.98Q8.84-13.72 7.24-15.28L7.24-15.28L4.28-18.24Q0.84-21.60 0.84-25.68L0.84-25.68Q0.84-30.08 2.86-32.38Q4.88-34.68 8.76-34.68L8.76-34.68Q13.40-34.68 15.44-32.22Q17.48-29.76 17.48-24.52L17.48-24.52L10.48-24.52L10.44-26.88Q10.44-27.56 10.06-27.96Q9.68-28.36 9-28.36L9-28.36Q8.20-28.36 7.80-27.92Q7.40-27.48 7.40-26.72L7.40-26.72Q7.40-25.04 9.32-23.24L9.32-23.24L13.32-19.40Q14.72-18.04 15.64-16.82Q16.56-15.60 17.12-13.94Q17.68-12.28 17.68-10L17.68-10Q17.68-4.92 15.82-2.30Q13.96 0.32 9.68 0.32L9.68 0.32Z M32.60 0L25.72 0L25.72-27.76L21.64-27.76L21.64-34.36L36.68-34.36L36.68-27.76L32.60-27.76L32.60 0Z M49.36 0.32Q45.12 0.32 43.06-2.08Q41.00-4.48 41.00-9.20L41.00-9.20L41.00-34.36L47.68-34.36L47.68-9.48Q47.68-7.84 48-6.92Q48.32-6 49.36-6L49.36-6Q50.40-6 50.72-6.90Q51.04-7.80 51.04-9.48L51.04-9.48L51.04-34.36L57.72-34.36L57.72-9.20Q57.72-4.48 55.66-2.08Q53.60 0.32 49.36 0.32L49.36 0.32Z M63.16 0L63.16-34.36L72.64-34.36Q76.32-34.36 78.16-32.32Q80-30.28 80.04-26.28L80.04-26.28L80.12-10.20Q80.16-5.12 78.36-2.56Q76.56 0 72.40 0L72.40 0L63.16 0ZM70.08-6.08L71.28-6.08Q73.16-6.08 73.16-7.92L73.16-7.92L73.16-25.64Q73.16-26.80 72.98-27.38Q72.80-27.96 72.32-28.16Q71.84-28.36 70.84-28.36L70.84-28.36L70.08-28.36L70.08-6.08Z M99.88 0L85.68 0L85.68-34.36L99.44-34.36L99.44-27.72L92.68-27.72L92.68-21.04L99.16-21.04L99.16-14.56L92.68-14.56L92.68-6.68L99.88-6.68L99.88 0Z M111.68 0L104.96 0L104.96-34.36L112.04-34.36L115.20-17.92L115.20-34.36L121.84-34.36L121.84 0L115.12 0L111.68-17.20L111.68 0Z M137.52 0L130.64 0L130.64-27.76L126.56-27.76L126.56-34.36L141.60-34.36L141.60-27.76L137.52-27.76L137.52 0Z M164.68 0L158.48 0L158.48-34.36L168.96-34.36L171.84-13.40L174.72-34.36L185.28-34.36L185.28 0L179.00 0L179.00-24.76L175.04 0L168.88 0L164.68-24.76L164.68 0Z M196.88 0L190.20 0L193.52-34.36L205.16-34.36L208.44 0L201.92 0L201.44-5.56L197.28-5.56L196.88 0ZM199.08-28.52L197.80-11.04L200.92-11.04L199.40-28.52L199.08-28.52Z M213.32 0L213.32-34.36L223.88-34.36Q226.40-34.36 227.78-33.22Q229.16-32.08 229.64-30.02Q230.12-27.96 230.12-24.76L230.12-24.76Q230.12-21.84 229.36-20.20Q228.60-18.56 226.72-17.92L226.72-17.92Q228.28-17.60 228.98-16.36Q229.68-15.12 229.68-13L229.68-13L229.60 0L222.88 0L222.88-13.44Q222.88-14.88 222.32-15.28Q221.76-15.68 220.28-15.68L220.28-15.68L220.28 0L213.32 0ZM220.32-21.64L221.96-21.64Q223.40-21.64 223.40-24.76L223.40-24.76Q223.40-26.12 223.28-26.80Q223.16-27.48 222.84-27.74Q222.52-28 221.92-28L221.92-28L220.32-28L220.32-21.64Z M242.04 0L235.20 0L235.20-34.36L242.00-34.36L242.00-20.60L245.20-34.36L252.12-34.36L248.28-18.64L252.92 0L245.80 0L242.04-16.64L242.04 0Z M271.08 0L256.88 0L256.88-34.36L270.64-34.36L270.64-27.72L263.88-27.72L263.88-21.04L270.36-21.04L270.36-14.56L263.88-14.56L263.88-6.68L271.08-6.68L271.08 0Z M286.00 0L279.12 0L279.12-27.76L275.04-27.76L275.04-34.36L290.08-34.36L290.08-27.76L286.00-27.76L286.00 0Z"/></g>
</svg>
</g></svg></svg>